{
    "asset" : {
        "generator" : "Khronos glTF Blender I/O v1.7.33",
        "version" : "2.0"
    },
    "scene" : 0,
    "scenes" : [
        {
            "name" : "Scene",
            "nodes" : [
                0
            ]
        }
    ],
    "nodes" : [
        {
            "mesh" : 0,
            "name" : "derevo_01",
            "rotation" : [
                0.7071068286895752,
                0,
                0,
                0.7071067094802856
            ]
        }
    ],
    "materials" : [
        {
            "doubleSided" : true,
            "name" : "tree_stem",
            "pbrMetallicRoughness" : {
                "baseColorTexture" : {
                    "index" : 0
                },
                "metallicFactor" : 0,
                "roughnessFactor" : 0.8188976645469666
            }
        },
        {
            "alphaCutoff" : 0.5,
            "alphaMode" : "MASK",
            "doubleSided" : true,
            "name" : "tree_branch",
            "pbrMetallicRoughness" : {
                "baseColorTexture" : {
                    "index" : 1
                },
                "metallicFactor" : 0,
                "roughnessFactor" : 0.8976378440856934
            }
        }
    ],
    "meshes" : [
        {
            "name" : "derevo_01",
            "primitives" : [
                {
                    "attributes" : {
                        "POSITION" : 0,
                        "NORMAL" : 1,
                        "TANGENT" : 2,
                        "TEXCOORD_0" : 3
                    },
                    "indices" : 4,
                    "material" : 0
                },
                {
                    "attributes" : {
                        "POSITION" : 5,
                        "NORMAL" : 6,
                        "TANGENT" : 7,
                        "TEXCOORD_0" : 8
                    },
                    "indices" : 9,
                    "material" : 1
                }
            ]
        }
    ],
    "textures" : [
        {
            "sampler" : 0,
            "source" : 0
        },
        {
            "sampler" : 0,
            "source" : 1
        }
    ],
    "images" : [
        {
            "mimeType" : "image/png",
            "name" : "trees_stem_02.png",
            "uri" : "../../textures/trees/trees_stem_02.png"
        },
        {
            "mimeType" : "image/png",
            "name" : "trees_branch_02.png",
            "uri" : "../../textures/trees/trees_branch_02.png"
        }
    ],
    "accessors" : [
        {
            "bufferView" : 0,
            "componentType" : 5126,
            "count" : 2663,
            "max" : [
                8.982970237731934,
                10.184599876403809,
                0.05876059830188751
            ],
            "min" : [
                -10.378700256347656,
                -9.194069862365723,
                -26.990299224853516
            ],
            "type" : "VEC3"
        },
        {
            "bufferView" : 1,
            "componentType" : 5126,
            "count" : 2663,
            "type" : "VEC3"
        },
        {
            "bufferView" : 2,
            "componentType" : 5126,
            "count" : 2663,
            "type" : "VEC4"
        },
        {
            "bufferView" : 3,
            "componentType" : 5126,
            "count" : 2663,
            "type" : "VEC2"
        },
        {
            "bufferView" : 4,
            "componentType" : 5123,
            "count" : 8550,
            "type" : "SCALAR"
        },
        {
            "bufferView" : 5,
            "componentType" : 5126,
            "count" : 744,
            "max" : [
                10.298199653625488,
                10.004599571228027,
                -3.5225400924682617
            ],
            "min" : [
                -12.012800216674805,
                -10.923600196838379,
                -29.52359962463379
            ],
            "type" : "VEC3"
        },
        {
            "bufferView" : 6,
            "componentType" : 5126,
            "count" : 744,
            "type" : "VEC3"
        },
        {
            "bufferView" : 7,
            "componentType" : 5126,
            "count" : 744,
            "type" : "VEC4"
        },
        {
            "bufferView" : 8,
            "componentType" : 5126,
            "count" : 744,
            "type" : "VEC2"
        },
        {
            "bufferView" : 9,
            "componentType" : 5123,
            "count" : 1416,
            "type" : "SCALAR"
        }
    ],
    "bufferViews" : [
        {
            "buffer" : 0,
            "byteLength" : 31956,
            "byteOffset" : 0
        },
        {
            "buffer" : 0,
            "byteLength" : 31956,
            "byteOffset" : 31956
        },
        {
            "buffer" : 0,
            "byteLength" : 42608,
            "byteOffset" : 63912
        },
        {
            "buffer" : 0,
            "byteLength" : 21304,
            "byteOffset" : 106520
        },
        {
            "buffer" : 0,
            "byteLength" : 17100,
            "byteOffset" : 127824
        },
        {
            "buffer" : 0,
            "byteLength" : 8928,
            "byteOffset" : 144924
        },
        {
            "buffer" : 0,
            "byteLength" : 8928,
            "byteOffset" : 153852
        },
        {
            "buffer" : 0,
            "byteLength" : 11904,
            "byteOffset" : 162780
        },
        {
            "buffer" : 0,
            "byteLength" : 5952,
            "byteOffset" : 174684
        },
        {
            "buffer" : 0,
            "byteLength" : 2832,
            "byteOffset" : 180636
        }
    ],
    "samplers" : [
        {
            "magFilter" : 9729,
            "minFilter" : 9987
        }
    ],
    "buffers" : [
        {
            "byteLength" : 183468,
            "uri" : "derevo_01.bin"
        }
    ]
}
