# Blender 3.5.1
# www.blender.org
o Cone
v 0.000000 1.000000 -1.000000
v 0.309017 0.951057 -1.000000
v 0.587785 0.809017 -1.000000
v 0.809017 0.587785 -1.000000
v 0.951057 0.309017 -1.000000
v 1.000000 0.000000 -1.000000
v 0.951057 -0.309017 -1.000000
v 0.809017 -0.587785 -1.000000
v 0.587785 -0.809017 -1.000000
v 0.309017 -0.951057 -1.000000
v 0.000000 -1.000000 -1.000000
v -0.309017 -0.951057 -1.000000
v -0.587785 -0.809017 -1.000000
v -0.809017 -0.587785 -1.000000
v -0.951057 -0.309017 -1.000000
v -1.000000 0.000000 -1.000000
v -0.951057 0.309017 -1.000000
v -0.809017 0.587785 -1.000000
v -0.587785 0.809017 -1.000000
v -0.309017 0.951057 -1.000000
v 0.000000 0.000000 0.000000
vn 0.1113 0.7027 0.7027
vn 0.3230 0.6339 0.7027
vn 0.5031 0.5031 0.7027
vn 0.6339 0.3230 0.7027
vn 0.7027 0.1113 0.7027
vn 0.7027 -0.1113 0.7027
vn 0.6339 -0.3230 0.7027
vn 0.5031 -0.5031 0.7027
vn 0.3230 -0.6339 0.7027
vn 0.1113 -0.7027 0.7027
vn -0.1113 -0.7027 0.7027
vn -0.3230 -0.6339 0.7027
vn -0.5031 -0.5031 0.7027
vn -0.6339 -0.3230 0.7027
vn -0.7027 -0.1113 0.7027
vn -0.7027 0.1113 0.7027
vn -0.6339 0.3230 0.7027
vn -0.5031 0.5031 0.7027
vn -0.0000 -0.0000 -1.0000
vn -0.3230 0.6339 0.7027
vn -0.1113 0.7027 0.7027
vt 0.250000 0.490000
vt 0.750000 0.490000
vt 0.324164 0.478254
vt 0.824164 0.478254
vt 0.391068 0.444164
vt 0.891068 0.444164
vt 0.444164 0.391068
vt 0.944164 0.391068
vt 0.478254 0.324164
vt 0.978254 0.324164
vt 0.490000 0.250000
vt 0.990000 0.250000
vt 0.478254 0.175836
vt 0.978254 0.175836
vt 0.444164 0.108932
vt 0.944164 0.108932
vt 0.391068 0.055836
vt 0.891068 0.055836
vt 0.324164 0.021746
vt 0.824164 0.021746
vt 0.250000 0.010000
vt 0.750000 0.010000
vt 0.175836 0.021746
vt 0.675836 0.021746
vt 0.108932 0.055836
vt 0.608932 0.055836
vt 0.055836 0.108932
vt 0.555836 0.108932
vt 0.021746 0.175836
vt 0.521746 0.175836
vt 0.010000 0.250000
vt 0.510000 0.250000
vt 0.021746 0.324164
vt 0.521746 0.324164
vt 0.055836 0.391068
vt 0.555836 0.391068
vt 0.108932 0.444164
vt 0.608932 0.444164
vt 0.175836 0.478254
vt 0.675836 0.478254
vt 0.250000 0.250000
s 0
f 1/1/1 21/41/1 2/3/1
f 2/3/2 21/41/2 3/5/2
f 3/5/3 21/41/3 4/7/3
f 4/7/4 21/41/4 5/9/4
f 5/9/5 21/41/5 6/11/5
f 6/11/6 21/41/6 7/13/6
f 7/13/7 21/41/7 8/15/7
f 8/15/8 21/41/8 9/17/8
f 9/17/9 21/41/9 10/19/9
f 10/19/10 21/41/10 11/21/10
f 11/21/11 21/41/11 12/23/11
f 12/23/12 21/41/12 13/25/12
f 13/25/13 21/41/13 14/27/13
f 14/27/14 21/41/14 15/29/14
f 15/29/15 21/41/15 16/31/15
f 16/31/16 21/41/16 17/33/16
f 17/33/17 21/41/17 18/35/17
f 18/35/18 21/41/18 19/37/18
f 8/16/19 16/32/19 20/40/19
f 19/37/20 21/41/20 20/39/20
f 20/39/21 21/41/21 1/1/21
f 20/40/19 1/2/19 2/4/19
f 2/4/19 3/6/19 4/8/19
f 4/8/19 5/10/19 6/12/19
f 6/12/19 7/14/19 8/16/19
f 8/16/19 9/18/19 10/20/19
f 10/20/19 11/22/19 12/24/19
f 12/24/19 13/26/19 14/28/19
f 14/28/19 15/30/19 16/32/19
f 16/32/19 17/34/19 18/36/19
f 18/36/19 19/38/19 20/40/19
f 20/40/19 2/4/19 4/8/19
f 4/8/19 6/12/19 8/16/19
f 8/16/19 10/20/19 12/24/19
f 12/24/19 14/28/19 16/32/19
f 16/32/19 18/36/19 20/40/19
f 20/40/19 4/8/19 8/16/19
f 8/16/19 12/24/19 16/32/19
