# Blender 3.5.1
# www.blender.org
o Cone
v 0.000000 -1.000000 -1.000000
v 0.000000 0.000000 -0.200000
v 0.309017 -1.000000 -0.951057
v 0.061803 0.000000 -0.190211
v 0.587785 -1.000000 -0.809017
v 0.117557 0.000000 -0.161803
v 0.809017 -1.000000 -0.587785
v 0.161803 0.000000 -0.117557
v 0.951057 -1.000000 -0.309017
v 0.190211 0.000000 -0.061803
v 1.000000 -1.000000 0.000000
v 0.200000 0.000000 0.000000
v 0.951057 -1.000000 0.309017
v 0.190211 0.000000 0.061803
v 0.809017 -1.000000 0.587785
v 0.161803 0.000000 0.117557
v 0.587785 -1.000000 0.809017
v 0.117557 0.000000 0.161803
v 0.309017 -1.000000 0.951057
v 0.061803 0.000000 0.190211
v 0.000000 -1.000000 1.000000
v 0.000000 0.000000 0.200000
v -0.309017 -1.000000 0.951057
v -0.061803 0.000000 0.190211
v -0.587785 -1.000000 0.809017
v -0.117557 0.000000 0.161803
v -0.809017 -1.000000 0.587785
v -0.161803 0.000000 0.117557
v -0.951057 -1.000000 0.309017
v -0.190211 0.000000 0.061803
v -1.000000 -1.000000 0.000000
v -0.200000 0.000000 0.000000
v -0.951057 -1.000000 -0.309017
v -0.190211 0.000000 -0.061803
v -0.809017 -1.000000 -0.587785
v -0.161803 0.000000 -0.117557
v -0.587785 -1.000000 -0.809017
v -0.117557 0.000000 -0.161803
v -0.309017 -1.000000 -0.951057
v -0.061803 0.000000 -0.190211
vn 0.1227 0.6200 -0.7750
vn 0.3562 0.6200 -0.6991
vn 0.5548 0.6200 -0.5548
vn 0.6991 0.6200 -0.3562
vn 0.7750 0.6200 -0.1227
vn 0.7750 0.6200 0.1227
vn 0.6991 0.6200 0.3562
vn 0.5548 0.6200 0.5548
vn 0.3562 0.6200 0.6991
vn 0.1227 0.6200 0.7750
vn -0.1227 0.6200 0.7750
vn -0.3562 0.6200 0.6991
vn -0.5548 0.6200 0.5548
vn -0.6991 0.6200 0.3562
vn -0.7750 0.6200 0.1227
vn -0.7750 0.6200 -0.1227
vn -0.6991 0.6200 -0.3562
vn -0.5548 0.6200 -0.5548
vn -0.0000 1.0000 -0.0000
vn -0.3562 0.6200 -0.6991
vn -0.1227 0.6200 -0.7750
vn -0.0000 -1.0000 -0.0000
vt 1.000000 0.500000
vt -0.000000 0.500000
vt 0.750000 0.490000
vt 1.000000 1.000000
vt 0.250000 0.490000
vt -0.000000 1.000000
vt 0.950000 0.500000
vt 0.824164 0.478254
vt 0.950000 1.000000
vt 0.324164 0.478254
vt 0.900000 0.500000
vt 0.891068 0.444164
vt 0.900000 1.000000
vt 0.391068 0.444164
vt 0.850000 0.500000
vt 0.944164 0.391068
vt 0.850000 1.000000
vt 0.444164 0.391068
vt 0.800000 0.500000
vt 0.978254 0.324164
vt 0.800000 1.000000
vt 0.478254 0.324164
vt 0.750000 0.500000
vt 0.990000 0.250000
vt 0.750000 1.000000
vt 0.490000 0.250000
vt 0.700000 0.500000
vt 0.978254 0.175836
vt 0.700000 1.000000
vt 0.478254 0.175836
vt 0.650000 0.500000
vt 0.944164 0.108932
vt 0.650000 1.000000
vt 0.444164 0.108932
vt 0.600000 0.500000
vt 0.891068 0.055836
vt 0.600000 1.000000
vt 0.391068 0.055836
vt 0.550000 0.500000
vt 0.824164 0.021746
vt 0.550000 1.000000
vt 0.324164 0.021746
vt 0.500000 0.500000
vt 0.750000 0.010000
vt 0.500000 1.000000
vt 0.250000 0.010000
vt 0.450000 0.500000
vt 0.675836 0.021746
vt 0.450000 1.000000
vt 0.175836 0.021746
vt 0.400000 0.500000
vt 0.608932 0.055836
vt 0.400000 1.000000
vt 0.108932 0.055836
vt 0.350000 0.500000
vt 0.555836 0.108932
vt 0.350000 1.000000
vt 0.055836 0.108932
vt 0.300000 0.500000
vt 0.521746 0.175836
vt 0.300000 1.000000
vt 0.021746 0.175836
vt 0.250000 0.500000
vt 0.510000 0.250000
vt 0.250000 1.000000
vt 0.010000 0.250000
vt 0.200000 0.500000
vt 0.521746 0.324164
vt 0.200000 1.000000
vt 0.021746 0.324164
vt 0.150000 0.500000
vt 0.555836 0.391068
vt 0.150000 1.000000
vt 0.055836 0.391068
vt 0.100000 0.500000
vt 0.608932 0.444164
vt 0.108932 0.444164
vt 0.100000 1.000000
vt 0.050000 0.500000
vt 0.675836 0.478254
vt 0.175836 0.478254
vt 0.050000 1.000000
s 0
f 2/4/1 3/7/1 1/1/1
f 3/7/2 6/13/2 5/11/2
f 5/11/3 8/17/3 7/15/3
f 7/15/4 10/21/4 9/19/4
f 10/21/5 11/23/5 9/19/5
f 12/25/6 13/27/6 11/23/6
f 13/27/7 16/33/7 15/31/7
f 15/31/8 18/37/8 17/35/8
f 17/35/9 20/41/9 19/39/9
f 20/41/10 21/43/10 19/39/10
f 22/45/11 23/47/11 21/43/11
f 23/47/12 26/53/12 25/51/12
f 25/51/13 28/57/13 27/55/13
f 27/55/14 30/61/14 29/59/14
f 30/61/15 31/63/15 29/59/15
f 32/65/16 33/67/16 31/63/16
f 33/67/17 36/73/17 35/71/17
f 35/71/18 38/78/18 37/75/18
f 30/62/19 14/30/19 6/14/19
f 37/75/20 40/82/20 39/79/20
f 40/82/21 1/2/21 39/79/21
f 15/32/22 31/64/22 39/80/22
f 2/4/1 4/9/1 3/7/1
f 3/7/2 4/9/2 6/13/2
f 5/11/3 6/13/3 8/17/3
f 7/15/4 8/17/4 10/21/4
f 10/21/5 12/25/5 11/23/5
f 12/25/6 14/29/6 13/27/6
f 13/27/7 14/29/7 16/33/7
f 15/31/8 16/33/8 18/37/8
f 17/35/9 18/37/9 20/41/9
f 20/41/10 22/45/10 21/43/10
f 22/45/11 24/49/11 23/47/11
f 23/47/12 24/49/12 26/53/12
f 25/51/13 26/53/13 28/57/13
f 27/55/14 28/57/14 30/61/14
f 30/61/15 32/65/15 31/63/15
f 32/65/16 34/69/16 33/67/16
f 33/67/17 34/69/17 36/73/17
f 35/71/18 36/73/18 38/78/18
f 6/14/19 4/10/19 2/5/19
f 2/5/19 40/81/19 38/77/19
f 38/77/19 36/74/19 34/70/19
f 34/70/19 32/66/19 30/62/19
f 30/62/19 28/58/19 26/54/19
f 26/54/19 24/50/19 22/46/19
f 22/46/19 20/42/19 18/38/19
f 18/38/19 16/34/19 14/30/19
f 14/30/19 12/26/19 10/22/19
f 10/22/19 8/18/19 6/14/19
f 6/14/19 2/5/19 38/77/19
f 38/77/19 34/70/19 30/62/19
f 30/62/19 26/54/19 22/46/19
f 22/46/19 18/38/19 14/30/19
f 14/30/19 10/22/19 6/14/19
f 6/14/19 38/77/19 30/62/19
f 30/62/19 22/46/19 14/30/19
f 37/75/20 38/78/20 40/82/20
f 40/82/21 2/6/21 1/2/21
f 39/80/22 1/3/22 3/8/22
f 3/8/22 5/12/22 7/16/22
f 7/16/22 9/20/22 11/24/22
f 11/24/22 13/28/22 15/32/22
f 15/32/22 17/36/22 19/40/22
f 19/40/22 21/44/22 23/48/22
f 23/48/22 25/52/22 27/56/22
f 27/56/22 29/60/22 31/64/22
f 31/64/22 33/68/22 35/72/22
f 35/72/22 37/76/22 39/80/22
f 39/80/22 3/8/22 7/16/22
f 7/16/22 11/24/22 15/32/22
f 15/32/22 19/40/22 23/48/22
f 23/48/22 27/56/22 31/64/22
f 31/64/22 35/72/22 39/80/22
f 39/80/22 7/16/22 15/32/22
f 15/32/22 23/48/22 31/64/22
